<svg id="Layer_1" data-name="Layer 1" xmlns="http://www.w3.org/2000/svg" viewBox="0 0 100 87.024">
  <g>
    <path d="M24.183,66.186a20.531,20.531,0,0,1-6.336,6.336L2.315,81.489c-2.209,1.275-2.973.511-1.7-1.7L45.824,1.49c1.276-2.209,2.319-1.929,2.319.622V20.046A20.506,20.506,0,0,1,45.824,28.7Z" transform="translate(0 0)" style="fill: #303d4e"/>
    <path d="M71.643,73.418A20.521,20.521,0,0,1,80.3,75.737l15.534,8.968c2.21,1.275,1.93,2.319-.621,2.319H4.789c-2.551,0-2.83-1.044-.621-2.319L19.7,75.737a20.521,20.521,0,0,1,8.655-2.319Z" transform="translate(0 0)" style="fill: #303d4e"/>
    <path d="M82.15,72.521a20.517,20.517,0,0,1-6.336-6.335L54.173,28.7a20.506,20.506,0,0,1-2.319-8.655V2.112c0-2.551,1.043-2.831,2.319-.622l45.209,78.3c1.276,2.209.512,2.973-1.7,1.7Z" transform="translate(0 0)" style="fill: #303d4e"/>
    <path d="M48.143,50.392a8.91,8.91,0,0,1-4.017,6.957l-11.82,6.824c-2.21,1.276-2.973.512-1.7-1.7L45.824,36.122c1.276-2.209,2.319-1.93,2.319.621Z" transform="translate(0 0)" style="fill: #303d4e"/>
    <path d="M45.982,60.562a8.907,8.907,0,0,1,8.033,0l11.821,6.826c2.209,1.276,1.93,2.32-.621,2.32H34.782c-2.551,0-2.83-1.044-.621-2.32Z" transform="translate(0 0)" style="fill: #303d4e"/>
    <path d="M69.389,62.475c1.275,2.21.511,2.974-1.7,1.7l-11.82-6.824a8.91,8.91,0,0,1-4.017-6.957V36.743c0-2.551,1.043-2.83,2.319-.621Z" transform="translate(0 0)" style="fill: #303d4e"/>
  </g>
</svg>
